<?xml version="1.0" encoding="utf-8"?>
<!-- Generator: Adobe Illustrator 17.0.0, SVG Export Plug-In . SVG Version: 6.00 Build 0)  -->
<!DOCTYPE svg PUBLIC "-//W3C//DTD SVG 1.1//EN" "http://www.w3.org/Graphics/SVG/1.1/DTD/svg11.dtd">
<svg version="1.1" id="レイヤー_1" xmlns="http://www.w3.org/2000/svg" xmlns:xlink="http://www.w3.org/1999/xlink" x="0px"
	 y="0px" width="400.384px" height="400.384px" viewBox="0 0 400.384 400.384" enable-background="new 0 0 400.384 400.384"
	 xml:space="preserve">
<g>
	<g>
		<path fill="#C8DC67" d="M134.27,205.526c16.96,3.941,43.333-47.194,52.99-88.753s-1.059-57.804-18.019-61.745
			s-33.741,5.915-43.398,47.473S117.311,201.585,134.27,205.526z"/>
		<path fill="#3E3A39" d="M119.341,267.095c0.035-73.745,21.011-139.675,33.461-154.687c-2.826,47.743,25.208,82.729,31.472,89.914
			c4.055-0.665,8.215-1.019,12.455-1.019c42.741,0,77.389,35.459,77.389,72.313c0,30.049-23.033,51.747-54.707,58.736
			c-1.847,0.408-3.727,1.113-5.63,1.419c-1.903,0.306-4.047-2.952-6-2.75c-1.94,0.201-3.183,3.654-5.167,3.75
			c-1.779,0.086-4.076-0.008-5.886-0.008c-42.741,0-77.389-24.293-77.389-61.148C119.341,271.752,119.341,267.097,119.341,267.095z"
			/>
		<g>
			<g>
				<path fill="#F7F7F7" d="M255.739,305.027c-12.118,0-22.055-8.5-23.113-19.771c-0.55-5.861,1.387-11.595,5.453-16.146
					c4.038-4.52,9.7-7.331,15.942-7.916c0.792-0.075,1.596-0.112,2.387-0.112c12.118,0,22.055,8.5,23.112,19.771
					c0.551,5.86-1.386,11.595-5.452,16.146c-4.039,4.52-9.7,7.331-15.942,7.917C257.333,304.989,256.53,305.027,255.739,305.027z"/>
				<path fill="#3E3A39" d="M256.408,262.581c11.171,0,20.629,7.864,21.62,18.412c1.056,11.248-7.917,21.29-20.042,22.428
					c-0.756,0.071-1.504,0.106-2.247,0.106c-11.171,0-20.629-7.864-21.62-18.412c-1.056-11.249,7.917-21.29,20.042-22.428
					C254.917,262.616,255.666,262.581,256.408,262.581 M256.408,259.581c-0.838,0-1.688,0.04-2.527,0.119
					c-13.753,1.291-23.957,12.818-22.748,25.696c1.131,12.047,11.709,21.131,24.606,21.131c0.838,0,1.688-0.04,2.527-0.119
					c6.62-0.622,12.629-3.609,16.92-8.411c4.348-4.866,6.418-11.004,5.828-17.285C279.884,268.665,269.305,259.581,256.408,259.581
					L256.408,259.581z"/>
			</g>
			<path fill="#3E3A39" d="M254.438,265.631c3.956-0.371,7.728,0.425,10.936,2.078c-0.332-0.014-0.664-0.032-1.005,0
				c-3.798,0.357-6.609,3.502-6.279,7.026c0.331,3.524,3.678,6.091,7.477,5.735c3.798-0.357,6.609-3.502,6.279-7.026
				c-0.009-0.092-0.042-0.175-0.054-0.266c1.686,2.337,2.78,5.096,3.063,8.112c0.903,9.622-6.772,18.212-17.144,19.186
				c-10.372,0.974-19.513-6.037-20.416-15.659C236.39,275.195,244.066,266.605,254.438,265.631z"/>
		</g>
		<g>
			<g>
				<path fill="#F7F7F7" d="M139.103,313.801c-0.889,0-1.792-0.048-2.682-0.143c-6.235-0.658-11.863-3.536-15.849-8.103
					c-4.013-4.598-5.883-10.354-5.264-16.208c1.175-11.117,11.083-19.502,23.048-19.502c0.888,0,1.79,0.048,2.68,0.142
					c12.914,1.365,22.385,12.271,21.112,24.312C160.974,305.417,151.066,313.801,139.103,313.801
					C139.102,313.801,139.103,313.801,139.103,313.801z"/>
				<path fill="#3E3A39" d="M138.356,271.347c0.833,0,1.675,0.044,2.523,0.133c12.111,1.28,20.966,11.426,19.778,22.661
					c-1.104,10.448-10.504,18.159-21.555,18.159c-0.833,0-1.675-0.044-2.524-0.133c-12.111-1.28-20.966-11.426-19.778-22.661
					C117.905,279.058,127.304,271.347,138.356,271.347 M138.356,268.347c-12.733,0-23.283,8.961-24.539,20.844
					c-1.36,12.862,8.71,24.508,22.446,25.96c0.942,0.1,1.897,0.15,2.839,0.15c12.733,0,23.283-8.961,24.539-20.844
					c1.36-12.862-8.71-24.508-22.446-25.96C140.252,268.397,139.297,268.347,138.356,268.347L138.356,268.347z"/>
			</g>
			<path fill="#3E3A39" d="M119.97,289.841c1.016-9.611,10.238-16.515,20.598-15.42c3.936,0.416,7.465,1.931,10.279,4.171
				c-0.311-0.074-0.627-0.137-0.954-0.171c-3.794-0.401-7.171,2.127-7.543,5.647c-0.372,3.52,2.402,6.698,6.196,7.099
				c3.794,0.401,7.171-2.127,7.543-5.647c0.009-0.082,0.007-0.163,0.012-0.245c1.182,2.618,1.703,5.529,1.386,8.531
				c-1.016,9.611-10.238,16.515-20.598,15.42C126.53,308.131,118.955,299.452,119.97,289.841z"/>
		</g>
		<polygon fill="#3E3A39" points="122.56,223.586 112.478,223.272 115.463,220.857 112.974,218.141 115.767,215.799 
			113.516,213.016 123.467,215.005 		"/>
		<polygon fill="#3E3A39" points="174.276,191.707 182.2,185.465 181.466,189.234 185.118,189.713 184.485,193.303 187.999,193.987 
			179.098,198.862 		"/>
	</g>
</g>
</svg>
